<svg width="24" height="24" viewBox="0 0 24 24" fill="none" xmlns="http://www.w3.org/2000/svg">
<path d="M0.844727 5.49293C0.844727 2.92619 2.92595 0.844971 5.49269 0.844971H18.507C21.0737 0.844971 23.1549 2.92619 23.1549 5.49293V18.5072C23.1549 21.074 21.0737 23.1552 18.507 23.1552H5.49269C2.92595 23.1552 0.844727 21.074 0.844727 18.5072V5.49293ZM4.30068 6.51495C3.9416 6.63288 3.9416 7.14123 4.30068 7.25969C5.12829 7.53166 5.77741 8.18131 6.04991 9.00891C6.16837 9.368 6.67619 9.368 6.79465 9.00891C7.06662 8.18131 7.71627 7.53219 8.54387 7.25969C8.90349 7.14123 8.90349 6.63341 8.54387 6.51495C7.71627 6.24298 7.06715 5.59333 6.79465 4.76572C6.67672 4.4061 6.16837 4.4061 6.04991 4.76572C5.77794 5.59386 5.12829 6.24298 4.30068 6.51495ZM15.6948 5.90567C15.5546 5.47965 14.9522 5.47965 14.812 5.90567L14.1565 7.89925C13.8335 8.8809 13.0638 9.6506 12.0822 9.97356L10.0891 10.6291C9.6631 10.7693 9.6631 11.3722 10.0891 11.5119L12.0827 12.1674C13.0643 12.4904 13.834 13.2601 14.157 14.2417L14.8125 16.2348C14.9527 16.6608 15.5557 16.6608 15.6954 16.2348L16.3509 14.2417C16.6738 13.2601 17.4435 12.4904 18.4252 12.1674L20.4187 11.5119C20.8448 11.3717 20.8448 10.7688 20.4187 10.6291L18.4252 9.97356C17.4435 9.6506 16.6738 8.8809 16.3509 7.89925L15.6948 5.90567ZM8.72289 14.272C8.58265 13.846 7.98028 13.846 7.84004 14.272L7.75983 14.5163C7.43686 15.498 6.66716 16.2677 5.68551 16.5907L5.44116 16.6709C5.01514 16.8111 5.01514 17.414 5.44116 17.5537L5.68551 17.6339C6.66716 17.9569 7.43686 18.7266 7.75983 19.7083L7.84004 19.9526C7.98028 20.3786 8.58318 20.3786 8.72289 19.9526L8.8031 19.7083C9.12606 18.7266 9.89577 17.9569 10.8774 17.6339L11.1218 17.5537C11.5478 17.4135 11.5478 16.8106 11.1218 16.6709L10.8774 16.5907C9.89577 16.2677 9.12606 15.498 8.8031 14.5163L8.72289 14.272Z" fill="url(#paint0_linear_2602_5031)"/>
<defs>
<linearGradient id="paint0_linear_2602_5031" x1="17.9634" y1="4.54557" x2="3.68675" y2="20.6393" gradientUnits="userSpaceOnUse">
<stop stop-color="#BA5542"/>
<stop offset="1" stop-color="#F47360"/>
</linearGradient>
</defs>
</svg>
