<svg width="20" height="20" viewBox="0 0 20 20" fill="none" xmlns="http://www.w3.org/2000/svg">
<path d="M16.6668 6.66639C18.5051 6.66639 20 5.17145 20 3.33319C20 1.49494 18.5051 0 16.6668 0C14.8286 0 13.3336 1.49494 13.3336 3.33319C13.3336 5.17145 14.8286 6.66639 16.6668 6.66639ZM16.6668 1.6666C17.5859 1.6666 18.3334 2.41407 18.3334 3.33319C18.3334 4.25232 17.5859 4.99979 16.6668 4.99979C15.7477 4.99979 15.0002 4.25232 15.0002 3.33319C15.0002 2.41407 15.7477 1.6666 16.6668 1.6666ZM18.2234 8.58381C18.1176 8.13549 17.6609 7.85967 17.2218 7.963C16.7735 8.06883 16.496 8.51715 16.601 8.96463L17.4818 12.7053C17.6351 13.2536 17.5243 13.8286 17.1776 14.2827C16.8285 14.7386 16.2977 14.9994 15.721 14.9994H4.27983C3.72152 14.9994 3.20154 14.7519 2.85322 14.3202C2.50573 13.8894 2.37574 13.3344 2.4874 12.832L4.23233 6.3514C4.84897 3.59318 7.2672 1.66743 10.1121 1.66743C10.4704 1.66743 10.8279 1.6991 11.1745 1.76243C11.6337 1.84409 12.0612 1.54244 12.1437 1.09079C12.2262 0.637473 11.9245 0.204158 11.472 0.121662C11.027 0.0408316 10.5696 0 10.1113 0C6.48057 0 3.39403 2.4624 2.61406 5.95309L0.869135 12.4328C0.637478 13.4694 0.887468 14.5386 1.55577 15.3669C2.22158 16.1927 3.21487 16.6668 4.27983 16.6668H5.91809C6.30558 18.5659 7.98801 20 10.0004 20C12.0128 20 13.6953 18.5659 14.0828 16.6668H15.7202C16.8201 16.6668 17.8343 16.1668 18.5009 15.2952C19.1684 14.4219 19.3817 13.3144 19.095 12.2912L18.2234 8.58464V8.58381ZM10.0004 18.3326C8.91547 18.3326 7.99884 17.6334 7.65385 16.666H12.3462C12.0012 17.6334 11.0845 18.3326 9.99959 18.3326H10.0004Z" fill="black"/>
<path d="M16.6668 6.66639C18.5051 6.66639 20 5.17145 20 3.33319C20 1.49494 18.5051 0 16.6668 0C14.8286 0 13.3336 1.49494 13.3336 3.33319C13.3336 5.17145 14.8286 6.66639 16.6668 6.66639Z" fill="#E5484D"/>
</svg>
