<svg width="10" height="10" viewBox="0 0 10 10" fill="none" xmlns="http://www.w3.org/2000/svg">
<path d="M8.90002 9H1.90002V3.5H8.90002M7.40002 0V1H3.40002V0H2.40002V1H1.90002C1.34502 1 0.900024 1.445 0.900024 2V9C0.900024 9.26522 1.00538 9.51957 1.19292 9.70711C1.38045 9.89464 1.63481 10 1.90002 10H8.90002C9.16524 10 9.41959 9.89464 9.60713 9.70711C9.79467 9.51957 9.90002 9.26522 9.90002 9V2C9.90002 1.73478 9.79467 1.48043 9.60713 1.29289C9.41959 1.10536 9.16524 1 8.90002 1H8.40002V0M7.90002 5.5H5.40002V8H7.90002V5.5Z" fill="#60646C"/>
</svg>
