<svg width="25" height="22" viewBox="0 0 25 22" fill="none" xmlns="http://www.w3.org/2000/svg">
<path d="M16.7731 14.102L19.5617 15.653L18.7045 17.083L15.0588 15.059V11H16.7731V14.102ZM20.7731 7.986V2.2C20.7731 0.99 19.7559 0 18.4874 0H2.48737C1.23023 0 0.20166 0.99 0.20166 2.2V15.4C0.20166 16.621 1.23023 17.6 2.48737 17.6H8.9788C10.2702 20.196 13.0131 22 16.2017 22C20.6245 22 24.2017 18.557 24.2017 14.3C24.2017 11.682 22.8417 9.383 20.7731 7.986ZM18.4874 4.4V6.919C17.7674 6.721 17.0017 6.6 16.2017 6.6C14.4874 6.6 12.9217 7.117 11.6302 7.986V4.4H18.4874ZM2.48737 4.4H9.34452V8.8H2.48737V4.4ZM2.48737 15.4V11H8.9788C8.48738 12.001 8.20166 13.123 8.20166 14.3C8.20166 14.674 8.23595 15.037 8.29309 15.4H2.48737ZM16.2017 19.8C13.0474 19.8 10.4874 17.336 10.4874 14.3C10.4874 11.264 13.0474 8.8 16.2017 8.8C19.3559 8.8 21.9159 11.264 21.9159 14.3C21.9159 17.336 19.3559 19.8 16.2017 19.8Z" fill="#101010"/>
</svg>
