<svg width="17" height="16" viewBox="0 0 17 16" fill="none" xmlns="http://www.w3.org/2000/svg">
<path d="M11.9603 6.69267C9.38762 6.69267 7.29362 8.786 7.29362 11.3593C7.29362 13.918 9.38762 16 11.9603 16C14.533 16 16.627 13.9067 16.627 11.3333C16.627 8.77467 14.533 6.69267 11.9603 6.69267ZM11.9603 14.6667C10.1223 14.6667 8.62695 13.1827 8.62695 11.3593C8.62695 9.52133 10.1223 8.026 11.9603 8.026C13.7983 8.026 15.2936 9.51 15.2936 11.3333C15.2936 13.1713 13.7983 14.6667 11.9603 14.6667ZM13.0983 11.5287C13.359 11.7893 13.359 12.2107 13.0983 12.4713C12.9683 12.6013 12.7976 12.6667 12.627 12.6667C12.4563 12.6667 12.2856 12.6013 12.1556 12.4713L11.489 11.8047C11.3636 11.6793 11.2936 11.51 11.2936 11.3333V10C11.2936 9.632 11.5916 9.33333 11.9603 9.33333C12.329 9.33333 12.627 9.632 12.627 10V11.0573L13.0983 11.5287ZM16.627 4.66667V6C16.627 6.368 16.329 6.66667 15.9603 6.66667C15.5916 6.66667 15.2936 6.368 15.2936 6V4.66667C15.2936 3.564 14.3963 2.66667 13.2936 2.66667H3.96029C2.85762 2.66667 1.96029 3.564 1.96029 4.66667V5.33333H7.96029C8.32829 5.33333 8.62695 5.632 8.62695 6C8.62695 6.368 8.32829 6.66667 7.96029 6.66667H1.96029V12.6667C1.96029 13.7693 2.85762 14.6667 3.96029 14.6667H6.62695C6.99495 14.6667 7.29362 14.9653 7.29362 15.3333C7.29362 15.7013 6.99495 16 6.62695 16H3.96029C2.12229 16 0.626953 14.5047 0.626953 12.6667V4.66667C0.626953 2.82867 2.12229 1.33333 3.96029 1.33333H4.62695V0.666667C4.62695 0.298667 4.92562 0 5.29362 0C5.66162 0 5.96029 0.298667 5.96029 0.666667V1.33333H11.2936V0.666667C11.2936 0.298667 11.5916 0 11.9603 0C12.329 0 12.627 0.298667 12.627 0.666667V1.33333H13.2936C15.1316 1.33333 16.627 2.82867 16.627 4.66667Z" fill="black"/>
</svg>
