<svg width="21" height="20" viewBox="0 0 21 20" fill="none" xmlns="http://www.w3.org/2000/svg">
<path d="M15.6265 7.5V0.833333C15.6265 0.3725 15.9998 0 16.4598 0C17.0098 0 17.139 0.106667 17.6481 0.314167L20.2273 1.36333C20.7598 1.69583 20.7598 2.47083 20.2273 2.80417L17.2931 4.37083V7.5C17.2931 7.96083 16.9198 8.33333 16.4598 8.33333C15.9998 8.33333 15.6265 7.96083 15.6265 7.5ZM17.2931 11.6667H13.9598C13.0406 11.6667 12.2931 10.9192 12.2931 10C12.2931 9.25917 12.7815 8.50583 13.404 8.285C13.8381 8.13167 14.0648 7.65583 13.9115 7.2225C13.7573 6.7875 13.2815 6.56083 12.8481 6.715C11.5606 7.17 10.6256 8.55167 10.6256 10C10.6256 11.8383 12.1206 13.3333 13.959 13.3333H17.2923C18.2115 13.3333 18.959 14.0808 18.959 15C18.959 15.9192 18.2115 16.6667 17.2923 16.6667H13.1256C12.6656 16.6667 12.2923 17.0392 12.2923 17.5C12.2923 17.9608 12.6656 18.3333 13.1256 18.3333H17.2923C19.1306 18.3333 20.6256 16.8383 20.6256 15C20.6256 13.1617 19.1315 11.6667 17.2931 11.6667ZM10.6265 14.1667V17.5C10.6265 18.8783 9.5048 20 8.12646 20H3.12646C1.74813 20 0.626465 18.8783 0.626465 17.5V14.1667C0.626465 12.7883 1.74813 11.6667 3.12646 11.6667C3.12646 10.7475 3.87396 10 4.79313 10H6.4598C7.37896 10 8.12646 10.7475 8.12646 11.6667C9.5048 11.6667 10.6265 12.7883 10.6265 14.1667ZM2.29313 14.1667V15H8.9598V14.1667C8.9598 13.7067 8.58563 13.3333 8.12646 13.3333H3.12646C2.6673 13.3333 2.29313 13.7067 2.29313 14.1667ZM8.9598 17.5V16.6667H6.4598C6.4598 17.1275 6.08646 17.5 5.62646 17.5C5.16646 17.5 4.79313 17.1275 4.79313 16.6667H2.29313V17.5C2.29313 17.96 2.6673 18.3333 3.12646 18.3333H8.12646C8.58563 18.3333 8.9598 17.96 8.9598 17.5Z" fill="black"/>
</svg>
