<svg width="22" height="16" viewBox="0 0 22 16" fill="none" xmlns="http://www.w3.org/2000/svg">
<path d="M17 14.4999C16.6021 14.4999 16.2206 14.3419 15.9393 14.0606C15.658 13.7793 15.5 13.3977 15.5 12.9999C15.5 12.6021 15.658 12.2206 15.9393 11.9393C16.2206 11.658 16.6021 11.4999 17 11.4999C17.3978 11.4999 17.7793 11.658 18.0606 11.9393C18.3419 12.2206 18.5 12.6021 18.5 12.9999C18.5 13.3977 18.3419 13.7793 18.0606 14.0606C17.7793 14.3419 17.3978 14.4999 17 14.4999ZM18.5 5.49996L20.4599 7.99995H16V5.49996H18.5ZM5.00004 14.4999C4.60222 14.4999 4.22069 14.3419 3.93939 14.0606C3.65808 13.7793 3.50005 13.3977 3.50005 12.9999C3.50005 12.6021 3.65808 12.2206 3.93939 11.9393C4.22069 11.658 4.60222 11.4999 5.00004 11.4999C5.39786 11.4999 5.77939 11.658 6.06069 11.9393C6.342 12.2206 6.50003 12.6021 6.50003 12.9999C6.50003 13.3977 6.342 13.7793 6.06069 14.0606C5.77939 14.3419 5.39786 14.4999 5.00004 14.4999ZM18.9999 3.99997H16V0H2.00006C0.890067 0 7.24792e-05 0.889994 7.24792e-05 1.99999V12.9999H2.00006C2.00006 13.7956 2.31613 14.5586 2.87873 15.1212C3.44134 15.6838 4.2044 15.9999 5.00004 15.9999C5.79568 15.9999 6.55874 15.6838 7.12135 15.1212C7.68395 14.5586 8.00002 13.7956 8.00002 12.9999H14C14 13.7956 14.316 14.5586 14.8787 15.1212C15.4413 15.6838 16.2043 15.9999 17 15.9999C17.7956 15.9999 18.5587 15.6838 19.1213 15.1212C19.6839 14.5586 19.9999 13.7956 19.9999 12.9999H21.9999V7.99995L18.9999 3.99997Z" fill="#101010"/>
</svg>
