<svg width="13" height="6" viewBox="0 0 13 6" fill="none" xmlns="http://www.w3.org/2000/svg">
<path d="M7.9409 5.26613L11.9372 1.42682C12.0994 1.2701 12.1904 1.0581 12.1904 0.837119C12.1904 0.616141 12.0994 0.404141 11.9372 0.247421C11.8563 0.169022 11.76 0.106795 11.6539 0.0643291C11.5478 0.0218636 11.434 0 11.3191 0C11.2041 0 11.0903 0.0218636 10.9842 0.0643291C10.8781 0.106795 10.7818 0.169022 10.7009 0.247421L6.71326 4.0951C6.63232 4.1735 6.53603 4.23572 6.42993 4.27819C6.32383 4.32066 6.21003 4.34252 6.09509 4.34252C5.98015 4.34252 5.86635 4.32066 5.76025 4.27819C5.65416 4.23572 5.55786 4.1735 5.47692 4.0951L1.48928 0.247421C1.32648 0.089914 1.10523 0.000986942 0.874186 0.000202616C0.643143 -0.000581709 0.421238 0.0868417 0.257289 0.243239C0.0933399 0.399637 0.000774384 0.612198 -4.19617e-05 0.834162C-0.000858307 1.05613 0.0901413 1.26931 0.252936 1.42682L4.24928 5.26613C4.73903 5.73605 5.40291 6 6.09509 6C6.78727 6 7.45115 5.73605 7.9409 5.26613Z" fill="#60646C"/>
</svg>
