<svg width="40" height="14" viewBox="0 0 40 14" fill="none" xmlns="http://www.w3.org/2000/svg">
<g clip-path="url(#clip0_1_9)">
<path d="M26 12.5H1C0.723858 12.5 0.5 12.7239 0.5 13C0.5 13.2761 0.723858 13.5 1 13.5H26C26.2761 13.5 26.5 13.2761 26.5 13C26.5 12.7239 26.2761 12.5 26 12.5Z" fill="#101010" stroke="#101010"/>
<path d="M24 1H3C1.89543 1 1 1.89543 1 3V7C1 8.10457 1.89543 9 3 9H24C25.1046 9 26 8.10457 26 7V3C26 1.89543 25.1046 1 24 1Z" stroke="#101010" stroke-width="2"/>
<path d="M1 3C1 1.89543 1.89543 1 3 1H16V9H3C1.89543 9 1 8.10457 1 7V3Z" fill="#101010" stroke="#101010" stroke-width="2"/>
<path d="M32 5.26714L32.7301 4.5L36 7.96028L39.2699 4.5L40 5.26714L36 9.5L32 5.26714Z" fill="#101010"/>
</g>
<defs>
<clipPath id="clip0_1_9">
<rect width="40" height="14" fill="white"/>
</clipPath>
</defs>
</svg>
