<svg width="33" height="32" viewBox="0 0 33 32" fill="none" xmlns="http://www.w3.org/2000/svg">
<g clip-path="url(#clip0_4012_7586)">
<path d="M17.8572 16C17.8572 16.8492 17.6005 17.6367 17.1638 18.295L14.768 15.8992C14.6113 15.7425 14.5238 15.5308 14.5238 15.31V11.9175C16.4255 12.3033 17.8572 13.9842 17.8572 16ZM12.8572 15.655V11.9175C10.7322 12.3492 9.19382 14.3975 9.58466 16.7233C9.85549 18.335 11.1013 19.6758 12.6922 20.05C13.9172 20.3375 15.0755 20.0775 15.9855 19.4742L13.3447 16.8333C13.0322 16.5208 12.8572 16.0967 12.8572 15.655ZM22.0238 11.8333H20.3572C19.8963 11.8333 19.5238 12.2067 19.5238 12.6667C19.5238 13.1267 19.8963 13.5 20.3572 13.5H22.0238C22.4847 13.5 22.8572 13.1267 22.8572 12.6667C22.8572 12.2067 22.4847 11.8333 22.0238 11.8333ZM22.0238 15.1667H20.3572C19.8963 15.1667 19.5238 15.54 19.5238 16C19.5238 16.46 19.8963 16.8333 20.3572 16.8333H22.0238C22.4847 16.8333 22.8572 16.46 22.8572 16C22.8572 15.54 22.4847 15.1667 22.0238 15.1667ZM22.0238 18.5H20.3572C19.8963 18.5 19.5238 18.8733 19.5238 19.3333C19.5238 19.7933 19.8963 20.1667 20.3572 20.1667H22.0238C22.4847 20.1667 22.8572 19.7933 22.8572 19.3333C22.8572 18.8733 22.4847 18.5 22.0238 18.5ZM26.1905 12.6667V19.3333C26.1905 21.6308 24.3213 23.5 22.0238 23.5H10.3572C8.05966 23.5 6.19049 21.6308 6.19049 19.3333V12.6667C6.19049 10.3692 8.05966 8.5 10.3572 8.5H22.0238C24.3213 8.5 26.1905 10.3692 26.1905 12.6667ZM24.5238 12.6667C24.5238 11.2883 23.4022 10.1667 22.0238 10.1667H10.3572C8.97882 10.1667 7.85716 11.2883 7.85716 12.6667V19.3333C7.85716 20.7117 8.97882 21.8333 10.3572 21.8333H22.0238C23.4022 21.8333 24.5238 20.7117 24.5238 19.3333V12.6667Z" fill="#6C6C6C"/>
</g>
<defs>
<clipPath id="clip0_4012_7586">
<rect width="20" height="20" fill="white" transform="translate(6.19049 6)"/>
</clipPath>
</defs>
</svg>
