<svg width="19" height="20" viewBox="0 0 19 20" fill="none" xmlns="http://www.w3.org/2000/svg">
<path d="M11.1306 20C10.9503 20 10.7748 19.9415 10.6306 19.8333L7.29727 17.3333C7.19377 17.2557 7.10977 17.1551 7.05191 17.0393C6.99405 16.9236 6.96393 16.796 6.96393 16.6667V11.9833L1.11727 5.40583C0.702033 4.9374 0.430915 4.35901 0.336499 3.7402C0.242083 3.12138 0.328386 2.48846 0.585035 1.91751C0.841684 1.34656 1.25776 0.861882 1.78325 0.521721C2.30874 0.181561 2.92129 0.000395349 3.54727 0L15.3806 0C16.0065 0.000734209 16.6189 0.182199 17.1442 0.522589C17.6695 0.862978 18.0853 1.34781 18.3417 1.91882C18.598 2.48983 18.6841 3.12273 18.5894 3.74146C18.4948 4.36018 18.2235 4.93841 17.8081 5.40667L11.9639 11.9833V19.1667C11.9639 19.3877 11.8761 19.5996 11.7199 19.7559C11.5636 19.9122 11.3516 20 11.1306 20ZM8.6306 16.25L10.2973 17.5V11.6667C10.2974 11.4626 10.3725 11.2657 10.5081 11.1133L16.5648 4.29917C16.7667 4.0709 16.8985 3.7892 16.9443 3.48788C16.9901 3.18655 16.9479 2.87842 16.8229 2.60046C16.6979 2.32251 16.4953 2.08655 16.2394 1.92091C15.9836 1.75527 15.6854 1.66699 15.3806 1.66667H3.54727C3.24264 1.66713 2.94462 1.75546 2.68894 1.92105C2.43325 2.08665 2.23077 2.3225 2.10577 2.60029C1.98077 2.87809 1.93856 3.18605 1.98421 3.48723C2.02985 3.78842 2.16141 4.07004 2.3631 4.29833L8.4206 11.1133C8.55595 11.2659 8.63066 11.4627 8.6306 11.6667V16.25Z" fill="#60646C"/>
</svg>
