<svg width="20" height="16" viewBox="0 0 20 16" fill="none" xmlns="http://www.w3.org/2000/svg">
<path d="M12.1534 12.4428H19.2637V14.2203H12.1534V12.4428ZM10.3759 15.0025C10.4114 15.2691 10.3226 15.5535 10.127 15.7401C9.77151 16.0868 9.21158 16.0868 8.86496 15.7401L5.30096 12.1761C5.09654 11.9717 5.00766 11.6962 5.04321 11.4385V6.88791L0.785963 1.4397C0.483779 1.05752 0.554881 0.497594 0.937056 0.195409C1.10592 0.0709802 1.29257 -0.00012207 1.4881 -0.00012207H13.931C14.1265 -0.00012207 14.3132 0.0709802 14.482 0.195409C14.8642 0.497594 14.9353 1.05752 14.6331 1.4397L10.3759 6.88791V15.0025ZM3.30121 1.77743L6.82077 6.28354V11.1807L8.59832 12.9583V6.26577L12.1179 1.77743H3.30121Z" fill="#101010"/>
</svg>
