<svg xmlns="http://www.w3.org/2000/svg" width="21" height="24" viewBox="0 0 21 24" fill="none">
<path d="M8.86998 10.5662C8.86998 9.89373 8.86998 9.5575 9.00063 9.30066C9.11555 9.07473 9.29892 8.89105 9.52446 8.77593C9.78086 8.64506 10.1165 8.64506 10.7878 8.64506H13.9043C14.5756 8.64506 14.9113 8.64506 15.1677 8.77593C15.3932 8.89105 15.5766 9.07473 15.6915 9.30066C15.8221 9.5575 15.8221 9.89373 15.8221 10.5662V13.688C15.8221 14.3605 15.8221 14.6967 15.6915 14.9535C15.5766 15.1795 15.3932 15.3632 15.1677 15.4783C14.9113 15.6091 14.5756 15.6091 13.9043 15.6091H10.7878C10.1165 15.6091 9.78086 15.6091 9.52446 15.4783C9.29892 15.3632 9.11555 15.1795 9.00063 14.9535C8.86998 14.6967 8.86998 14.3605 8.86998 13.688V10.5662Z" fill="#AE4F3E"/>
<path d="M15.7558 0C12.2093 0 9.28895 2.71168 8.9113 6.19682C8.88544 6.43549 8.87251 6.55482 8.92004 6.66886C8.95906 6.76245 9.04239 6.85548 9.13107 6.90443C9.23911 6.96408 9.37178 6.96408 9.63712 6.96408H15.7558C18.3827 6.96408 20.5458 4.25276 20.8258 0.767953C20.8456 0.521157 20.8555 0.397759 20.8067 0.286626C20.7658 0.193811 20.6849 0.105934 20.5958 0.0577243C20.4891 0 20.3559 0 20.0893 0H15.7558Z" fill="#322C2C"/>
<path d="M7.19188 18.7003C7.19188 21.4437 4.37812 23.7015 0.766575 23.9842C0.519609 24.0036 0.396126 24.0132 0.285425 23.9642C0.192835 23.9231 0.105533 23.8422 0.0574674 23.753C0 23.6462 0 23.5127 0 23.2456V1.92113C0 1.24867 0 0.91244 0.130645 0.655595C0.245563 0.429668 0.428933 0.245984 0.654472 0.130869C0.910877 0 1.24653 0 1.91783 0H5.27404C5.94535 0 6.281 0 6.53741 0.130869C6.76295 0.245984 6.94632 0.429668 7.06123 0.655595C7.19188 0.91244 7.19188 1.24867 7.19188 1.92112V18.7003Z" fill="#322C2C"/>
</svg>