<svg width="22" height="22" viewBox="0 0 22 22" fill="none" xmlns="http://www.w3.org/2000/svg">
<path d="M2.75 2.2H9.625V11L6.1875 9.35L2.75 11V2.2ZM19.25 0H2.75C2.02065 0 1.32118 0.231785 0.805456 0.644365C0.289731 1.05695 0 1.61652 0 2.2V19.8C0 20.3835 0.289731 20.9431 0.805456 21.3556C1.32118 21.7682 2.02065 22 2.75 22H19.25C19.9793 22 20.6788 21.7682 21.1945 21.3556C21.7103 20.9431 22 20.3835 22 19.8V2.2C22 1.61652 21.7103 1.05695 21.1945 0.644365C20.6788 0.231785 19.9793 0 19.25 0Z" fill="#101010"/>
</svg>
