<svg xmlns="http://www.w3.org/2000/svg" width="20" height="20" viewBox="0 0 20 20" fill="none">
<path fill-rule="evenodd" clip-rule="evenodd" d="M2.87037 1.66667C2.20558 1.66667 1.66667 2.20558 1.66667 2.87037V17.1296C1.66667 17.7944 2.20558 18.3333 2.87037 18.3333H17.1296C17.7944 18.3333 18.3333 17.7944 18.3333 17.1296V2.87037C18.3333 2.20558 17.7944 1.66667 17.1296 1.66667H2.87037ZM0 2.87037C0 1.28511 1.28511 0 2.87037 0H17.1296C18.7149 0 20 1.28511 20 2.87037V17.1296C20 18.7149 18.7149 20 17.1296 20H2.87037C1.28511 20 0 18.7149 0 17.1296V2.87037ZM6.11111 5.92593C6.11111 5.46569 6.48421 5.09259 6.94444 5.09259H14.0741C14.5343 5.09259 14.9074 5.46569 14.9074 5.92593C14.9074 6.38616 14.5343 6.75926 14.0741 6.75926H6.94444C6.48421 6.75926 6.11111 6.38616 6.11111 5.92593ZM5.09259 10C5.09259 9.53976 5.46569 9.16667 5.92593 9.16667H12.037C12.4973 9.16667 12.8704 9.53976 12.8704 10C12.8704 10.4602 12.4973 10.8333 12.037 10.8333H5.92593C5.46569 10.8333 5.09259 10.4602 5.09259 10ZM8.14815 14.0741C8.14815 13.6138 8.52124 13.2407 8.98148 13.2407H14.0741C14.5343 13.2407 14.9074 13.6138 14.9074 14.0741C14.9074 14.5343 14.5343 14.9074 14.0741 14.9074H8.98148C8.52124 14.9074 8.14815 14.5343 8.14815 14.0741Z" fill="#6C6C6C"/>
</svg>