<svg width="22" height="22" viewBox="0 0 22 22" fill="none" xmlns="http://www.w3.org/2000/svg">
<path d="M1.375 0C1.01033 0 0.660591 0.144866 0.402728 0.402728C0.144866 0.660591 0 1.01033 0 1.375V4.125C0 4.48967 0.144866 4.83941 0.402728 5.09727C0.660591 5.35513 1.01033 5.5 1.375 5.5H8.25C8.61467 5.5 8.96441 5.35513 9.22227 5.09727C9.48013 4.83941 9.625 4.48967 9.625 4.125V1.375C9.625 1.01033 9.48013 0.660591 9.22227 0.402728C8.96441 0.144866 8.61467 0 8.25 0H1.375ZM1.375 8.25C1.01033 8.25 0.660591 8.39487 0.402728 8.65273C0.144866 8.91059 0 9.26033 0 9.625V12.375C0 12.7397 0.144866 13.0894 0.402728 13.3473C0.660591 13.6051 1.01033 13.75 1.375 13.75H8.25C8.61467 13.75 8.96441 13.6051 9.22227 13.3473C9.48013 13.0894 9.625 12.7397 9.625 12.375V9.625C9.625 9.26033 9.48013 8.91059 9.22227 8.65273C8.96441 8.39487 8.61467 8.25 8.25 8.25H1.375ZM1.375 16.5C1.01033 16.5 0.660591 16.6449 0.402728 16.9027C0.144866 17.1606 0 17.5103 0 17.875V20.625C0 20.9897 0.144866 21.3394 0.402728 21.5973C0.660591 21.8551 1.01033 22 1.375 22H8.25C8.61467 22 8.96441 21.8551 9.22227 21.5973C9.48013 21.3394 9.625 20.9897 9.625 20.625V17.875C9.625 17.5103 9.48013 17.1606 9.22227 16.9027C8.96441 16.6449 8.61467 16.5 8.25 16.5H1.375ZM13.75 0C13.3853 0 13.0356 0.144866 12.7777 0.402728C12.5199 0.660591 12.375 1.01033 12.375 1.375V4.125C12.375 4.48967 12.5199 4.83941 12.7777 5.09727C13.0356 5.35513 13.3853 5.5 13.75 5.5H20.625C20.9897 5.5 21.3394 5.35513 21.5973 5.09727C21.8551 4.83941 22 4.48967 22 4.125V1.375C22 1.01033 21.8551 0.660591 21.5973 0.402728C21.3394 0.144866 20.9897 0 20.625 0H13.75ZM13.75 8.25C13.3853 8.25 13.0356 8.39487 12.7777 8.65273C12.5199 8.91059 12.375 9.26033 12.375 9.625V12.375C12.375 12.7397 12.5199 13.0894 12.7777 13.3473C13.0356 13.6051 13.3853 13.75 13.75 13.75H20.625C20.9897 13.75 21.3394 13.6051 21.5973 13.3473C21.8551 13.0894 22 12.7397 22 12.375V9.625C22 9.26033 21.8551 8.91059 21.5973 8.65273C21.3394 8.39487 20.9897 8.25 20.625 8.25H13.75Z" fill="black"/>
</svg>
