<svg xmlns="http://www.w3.org/2000/svg" width="20" height="20" viewBox="0 0 20 20" fill="none">
<path d="M1.25 0C0.918479 0 0.600537 0.131696 0.366116 0.366116C0.131696 0.600537 0 0.918479 0 1.25V3.75C0 4.08152 0.131696 4.39946 0.366116 4.63388C0.600537 4.8683 0.918479 5 1.25 5H7.5C7.83152 5 8.14946 4.8683 8.38388 4.63388C8.6183 4.39946 8.75 4.08152 8.75 3.75V1.25C8.75 0.918479 8.6183 0.600537 8.38388 0.366116C8.14946 0.131696 7.83152 0 7.5 0H1.25ZM1.25 7.5C0.918479 7.5 0.600537 7.6317 0.366116 7.86612C0.131696 8.10054 0 8.41848 0 8.75V11.25C0 11.5815 0.131696 11.8995 0.366116 12.1339C0.600537 12.3683 0.918479 12.5 1.25 12.5H7.5C7.83152 12.5 8.14946 12.3683 8.38388 12.1339C8.6183 11.8995 8.75 11.5815 8.75 11.25V8.75C8.75 8.41848 8.6183 8.10054 8.38388 7.86612C8.14946 7.6317 7.83152 7.5 7.5 7.5H1.25ZM1.25 15C0.918479 15 0.600537 15.1317 0.366116 15.3661C0.131696 15.6005 0 15.9185 0 16.25V18.75C0 19.0815 0.131696 19.3995 0.366116 19.6339C0.600537 19.8683 0.918479 20 1.25 20H7.5C7.83152 20 8.14946 19.8683 8.38388 19.6339C8.6183 19.3995 8.75 19.0815 8.75 18.75V16.25C8.75 15.9185 8.6183 15.6005 8.38388 15.3661C8.14946 15.1317 7.83152 15 7.5 15H1.25ZM12.5 0C12.1685 0 11.8505 0.131696 11.6161 0.366116C11.3817 0.600537 11.25 0.918479 11.25 1.25V3.75C11.25 4.08152 11.3817 4.39946 11.6161 4.63388C11.8505 4.8683 12.1685 5 12.5 5H18.75C19.0815 5 19.3995 4.8683 19.6339 4.63388C19.8683 4.39946 20 4.08152 20 3.75V1.25C20 0.918479 19.8683 0.600537 19.6339 0.366116C19.3995 0.131696 19.0815 0 18.75 0H12.5ZM12.5 7.5C12.1685 7.5 11.8505 7.6317 11.6161 7.86612C11.3817 8.10054 11.25 8.41848 11.25 8.75V11.25C11.25 11.5815 11.3817 11.8995 11.6161 12.1339C11.8505 12.3683 12.1685 12.5 12.5 12.5H18.75C19.0815 12.5 19.3995 12.3683 19.6339 12.1339C19.8683 11.8995 20 11.5815 20 11.25V8.75C20 8.41848 19.8683 8.10054 19.6339 7.86612C19.3995 7.6317 19.0815 7.5 18.75 7.5H12.5Z" fill="#6C6C6C"/>
</svg>