<svg width="24" height="24" viewBox="0 0 24 24" fill="none" xmlns="http://www.w3.org/2000/svg">
<path d="M18.8571 10.863H7.42857L11.1886 7.10302C11.2957 6.99678 11.3807 6.87037 11.4387 6.73111C11.4968 6.59184 11.5266 6.44246 11.5266 6.29159C11.5266 6.14072 11.4968 5.99134 11.4387 5.85207C11.3807 5.71281 11.2957 5.5864 11.1886 5.48016C10.9744 5.2673 10.6848 5.14783 10.3829 5.14783C10.0809 5.14783 9.79127 5.2673 9.57714 5.48016L4.67429 10.3944C4.24504 10.8211 4.00255 11.4006 4 12.0059C4.00556 12.6071 4.24782 13.182 4.67429 13.6059L9.57714 18.5202C9.6837 18.626 9.81006 18.7098 9.94899 18.7667C10.0879 18.8237 10.2367 18.8528 10.3869 18.8522C10.5371 18.8517 10.6857 18.8216 10.8242 18.7636C10.9627 18.7057 11.0885 18.621 11.1943 18.5144C11.3001 18.4079 11.3839 18.2815 11.4409 18.1426C11.4978 18.0037 11.5269 17.8549 11.5264 17.7047C11.5258 17.5545 11.4957 17.4059 11.4378 17.2674C11.3798 17.1289 11.2951 17.0031 11.1886 16.8973L7.42857 13.1487H18.8571C19.1602 13.1487 19.4509 13.0283 19.6653 12.814C19.8796 12.5997 20 12.309 20 12.0059C20 11.7028 19.8796 11.4121 19.6653 11.1978C19.4509 10.9834 19.1602 10.863 18.8571 10.863Z" fill="#6C6C6C"/>
</svg>
