<svg xmlns="http://www.w3.org/2000/svg" width="20" height="18" viewBox="0 0 20 18" fill="none">
<path fill-rule="evenodd" clip-rule="evenodd" d="M7.3199 1.88115C7.10756 1.79323 6.87997 1.748 6.65014 1.74805H3.75C3.15326 1.74805 2.58097 1.9851 2.15901 2.40706C1.73705 2.82901 1.5 3.40131 1.5 3.99805V4.87305H6.654C6.88383 4.87309 7.11156 4.82786 7.3239 4.73994C7.53625 4.65202 7.7292 4.52314 7.89174 4.36065L8.93951 3.31288L7.88774 2.26045C7.7252 2.09795 7.53225 1.96907 7.3199 1.88115ZM10.3117 4.06205L8.95233 5.42138C8.65048 5.72315 8.29207 5.96258 7.89771 6.12585C7.50339 6.28911 7.08078 6.37311 6.654 6.37305H1.5V13.002C1.5 13.864 1.84241 14.6907 2.4519 15.3001C3.0614 15.9096 3.88805 16.252 4.75 16.252H15.25C16.112 16.252 16.9386 15.9096 17.5481 15.3001C18.1576 14.6907 18.5 13.864 18.5 13.002V7.31205C18.5 6.45009 18.1576 5.62344 17.5481 5.01395C16.9386 4.40446 16.112 4.06205 15.25 4.06205H10.3117ZM10.3098 2.56205L8.9485 1.19988C8.64665 0.898112 8.28807 0.658517 7.89371 0.495241C7.49939 0.331982 7.07678 0.247986 6.65 0.248047H3.75C2.75544 0.248047 1.80161 0.643135 1.09835 1.3464C0.395088 2.04966 0 3.00349 0 3.99805V13.002C0 14.2618 0.500445 15.47 1.39124 16.3608C2.28204 17.2516 3.49022 17.752 4.75 17.752H15.25C16.5098 17.752 17.718 17.2516 18.6088 16.3608C19.4996 15.47 20 14.2618 20 13.002V7.31205C20 6.05227 19.4996 4.84409 18.6088 3.95329C17.718 3.06249 16.5098 2.56205 15.25 2.56205H10.3098Z" fill="#6C6C6C"/>
</svg>