<svg width="26" height="22" viewBox="0 0 26 22" fill="none" xmlns="http://www.w3.org/2000/svg">
<path d="M1.4404 6.7798V16.0012C1.4404 17.327 1.96705 18.5985 2.9045 19.5359C3.84195 20.4733 5.1134 21 6.43915 21H19.5609C20.8866 21 22.1581 20.4733 23.0955 19.5359C24.033 18.5985 24.5596 17.327 24.5596 16.0012V8.89053C24.5596 7.56478 24.033 6.29332 23.0955 5.35588C22.1581 4.41843 20.8866 3.89178 19.5609 3.89178H13M1.4404 6.7798V4.74906C1.4404 3.75475 1.83539 2.80116 2.53847 2.09807C3.24156 1.39499 4.19515 1 5.18946 1H8.81355C9.22386 0.999924 9.63017 1.08067 10.0093 1.23763C10.3884 1.39458 10.7328 1.62468 11.023 1.91477L13 3.89303L11.028 5.86503C10.7378 6.15513 10.3934 6.38522 10.0143 6.54218C9.63516 6.69914 9.22886 6.77988 8.81855 6.7798H1.4404Z" stroke="black" stroke-width="1.87453" stroke-linejoin="round"/>
</svg>
