<svg width="20" height="20" viewBox="0 0 20 20" fill="none" xmlns="http://www.w3.org/2000/svg">
<path fill-rule="evenodd" clip-rule="evenodd" d="M10 2C5.58172 2 2 5.58172 2 10C2 14.4183 5.58172 18 10 18C14.4183 18 18 14.4183 18 10C18 5.58172 14.4183 2 10 2ZM0 10C0 4.47715 4.47715 0 10 0C15.5228 0 20 4.47715 20 10C20 15.5228 15.5228 20 10 20C4.47715 20 0 15.5228 0 10Z" fill="black"/>
<path fill-rule="evenodd" clip-rule="evenodd" d="M9 5C9.55229 5 10 5.44772 10 6V10H14C14.5523 10 15 10.4477 15 11C15 11.5523 14.5523 12 14 12H9C8.44771 12 8 11.5523 8 11V6C8 5.44772 8.44771 5 9 5Z" fill="black"/>
</svg>
