<svg xmlns="http://www.w3.org/2000/svg" width="20" height="20" viewBox="0 0 20 20" fill="none">
<path d="M15.1017 0.28241C14.8193 0.564819 14.8193 1.0188 14.8193 1.92771V14.4578C14.8193 15.3667 14.8193 15.8207 15.1017 16.1031C15.3841 16.3855 15.8381 16.3855 16.747 16.3855C17.6559 16.3855 18.1099 16.3855 18.3923 16.1031C18.6747 15.8207 18.6747 15.3667 18.6747 14.4578V1.92771C18.6747 1.0188 18.6747 0.564819 18.3923 0.28241C18.1099 -2.7093e-08 17.6559 0 16.747 0C15.8381 0 15.3841 -2.7093e-08 15.1017 0.28241ZM8.07229 4.81928C8.07229 3.91036 8.07229 3.45639 8.3547 3.17398C8.63711 2.89157 9.09108 2.89157 10 2.89157C10.9089 2.89157 11.3629 2.89157 11.6453 3.17398C11.9277 3.45639 11.9277 3.91036 11.9277 4.81928V14.4578C11.9277 15.3667 11.9277 15.8207 11.6453 16.1031C11.3629 16.3855 10.9089 16.3855 10 16.3855C9.09108 16.3855 8.63711 16.3855 8.3547 16.1031C8.07229 15.8207 8.07229 15.3667 8.07229 14.4578V4.81928ZM1.60771 7.0294C1.3253 7.31181 1.3253 7.76578 1.3253 8.6747V14.4578C1.3253 15.3667 1.3253 15.8207 1.60771 16.1031C1.89012 16.3855 2.3441 16.3855 3.25301 16.3855C4.16193 16.3855 4.6159 16.3855 4.89831 16.1031C5.18072 15.8207 5.18072 15.3667 5.18072 14.4578V8.6747C5.18072 7.76578 5.18072 7.31181 4.89831 7.0294C4.6159 6.74699 4.16193 6.74699 3.25301 6.74699C2.3441 6.74699 1.89012 6.74699 1.60771 7.0294ZM1.3253 18.5542C1.13358 18.5542 0.949708 18.6304 0.814139 18.7659C0.678571 18.9015 0.602409 19.0854 0.602409 19.2771C0.602409 19.4688 0.678571 19.6527 0.814139 19.7883C0.949708 19.9238 1.13358 20 1.3253 20H18.6747C18.8664 20 19.0503 19.9238 19.1859 19.7883C19.3214 19.6527 19.3976 19.4688 19.3976 19.2771C19.3976 19.0854 19.3214 18.9015 19.1859 18.7659C19.0503 18.6304 18.8664 18.5542 18.6747 18.5542H1.3253Z" fill="#6C6C6C"/>
</svg>