<svg width="22" height="22" viewBox="0 0 22 22" fill="none" xmlns="http://www.w3.org/2000/svg">
<path d="M16.6119 0.310651C16.3012 0.621301 16.3012 1.12067 16.3012 2.12048V15.9036C16.3012 16.9034 16.3012 17.4028 16.6119 17.7134C16.9225 18.0241 17.4219 18.0241 18.4217 18.0241C19.4215 18.0241 19.9209 18.0241 20.2315 17.7134C20.5422 17.4028 20.5422 16.9034 20.5422 15.9036V2.12048C20.5422 1.12067 20.5422 0.621301 20.2315 0.310651C19.9209 -3.15976e-08 19.4215 0 18.4217 0C17.4219 0 16.9225 -3.15976e-08 16.6119 0.310651ZM8.87952 5.3012C8.87952 4.3014 8.87952 3.80202 9.19017 3.49137C9.50082 3.18072 10.0002 3.18072 11 3.18072C11.9998 3.18072 12.4992 3.18072 12.8098 3.49137C13.1205 3.80202 13.1205 4.3014 13.1205 5.3012V15.9036C13.1205 16.9034 13.1205 17.4028 12.8098 17.7134C12.4992 18.0241 11.9998 18.0241 11 18.0241C10.0002 18.0241 9.50082 18.0241 9.19017 17.7134C8.87952 17.4028 8.87952 16.9034 8.87952 15.9036V5.3012ZM1.76848 7.73234C1.45783 8.04299 1.45783 8.54236 1.45783 9.54217V15.9036C1.45783 16.9034 1.45783 17.4028 1.76848 17.7134C2.07913 18.0241 2.57851 18.0241 3.57831 18.0241C4.57812 18.0241 5.07749 18.0241 5.38814 17.7134C5.69879 17.4028 5.6988 16.9034 5.6988 15.9036V9.54217C5.6988 8.54236 5.69879 8.04299 5.38814 7.73234C5.07749 7.42169 4.57812 7.42169 3.57831 7.42169C2.57851 7.42169 2.07913 7.42169 1.76848 7.73234ZM1.45783 20.4096C1.24694 20.4096 1.04468 20.4934 0.895554 20.6425C0.746429 20.7917 0.662651 20.9939 0.662651 21.2048C0.662651 21.4157 0.746429 21.618 0.895554 21.7671C1.04468 21.9162 1.24694 22 1.45783 22H20.5422C20.7531 22 20.9553 21.9162 21.1044 21.7671C21.2536 21.618 21.3373 21.4157 21.3373 21.2048C21.3373 20.9939 21.2536 20.7917 21.1044 20.6425C20.9553 20.4934 20.7531 20.4096 20.5422 20.4096H1.45783Z" fill="black"/>
</svg>
