<svg width="12" height="12" viewBox="0 0 12 12" fill="none" xmlns="http://www.w3.org/2000/svg">
<path d="M11.6334 4.70997C10.8582 3.44744 9.09485 1.32922 6 1.32922C2.90515 1.32922 1.1418 3.44744 0.366587 4.70997C0.12694 5.09758 0 5.54428 0 5.99999C0 6.4557 0.12694 6.90241 0.366587 7.29002C1.1418 8.55255 2.90515 10.6708 6 10.6708C9.09485 10.6708 10.8582 8.55255 11.6334 7.29002C11.8731 6.90241 12 6.4557 12 5.99999C12 5.54428 11.8731 5.09758 11.6334 4.70997ZM10.7812 6.76671C10.1155 7.84931 8.60853 9.67113 6 9.67113C3.39147 9.67113 1.88452 7.84931 1.21877 6.76671C1.07639 6.53632 1.00098 6.27083 1.00098 5.99999C1.00098 5.72916 1.07639 5.46367 1.21877 5.23328C1.88452 4.15068 3.39147 2.32885 6 2.32885C8.60853 2.32885 10.1155 4.14868 10.7812 5.23328C10.9236 5.46367 10.999 5.72916 10.999 5.99999C10.999 6.27083 10.9236 6.53632 10.7812 6.76671Z" fill="#1D1D1D"/>
<path d="M6 3.50092C5.50573 3.50092 5.02256 3.64749 4.61159 3.92209C4.20062 4.19669 3.88031 4.58699 3.69116 5.04364C3.50201 5.50029 3.45252 6.00277 3.54894 6.48754C3.64537 6.97231 3.88339 7.4176 4.23289 7.76711C4.58239 8.11661 5.02768 8.35462 5.51245 8.45105C5.99723 8.54748 6.49971 8.49799 6.95635 8.30884C7.413 8.11969 7.8033 7.79938 8.0779 7.3884C8.35251 6.97743 8.49907 6.49426 8.49907 5.99999C8.49828 5.33744 8.23473 4.70225 7.76624 4.23376C7.29774 3.76526 6.66255 3.50171 6 3.50092ZM6 7.49944C5.70344 7.49944 5.41354 7.4115 5.16695 7.24674C4.92037 7.08197 4.72818 6.84779 4.61469 6.57381C4.5012 6.29982 4.47151 5.99833 4.52937 5.70747C4.58722 5.4166 4.73003 5.14943 4.93973 4.93973C5.14943 4.73002 5.41661 4.58722 5.70747 4.52936C5.99834 4.4715 6.29983 4.5012 6.57381 4.61469C6.8478 4.72818 7.08198 4.92036 7.24674 5.16695C7.4115 5.41353 7.49944 5.70343 7.49944 5.99999C7.49944 6.39767 7.34147 6.77906 7.06027 7.06026C6.77907 7.34146 6.39768 7.49944 6 7.49944Z" fill="#1D1D1D"/>
</svg>
