<svg width="17" height="16" viewBox="0 0 17 16" fill="none" xmlns="http://www.w3.org/2000/svg">
<path d="M1.62705 11.3329C1.62705 10.5962 2.2237 9.99958 2.96033 9.99958C3.69697 9.99958 4.29361 10.5962 4.29361 11.3329C4.29361 12.0695 3.69697 12.6661 2.96033 12.6661C2.2237 12.6661 1.62705 12.0695 1.62705 11.3329ZM7.29348 11.3329C7.29348 12.0695 7.89013 12.6661 8.62676 12.6661C9.3634 12.6661 9.96004 12.0695 9.96004 11.3329C9.96004 10.5962 9.3634 9.99958 8.62676 9.99958C7.89013 9.99958 7.29348 10.5962 7.29348 11.3329ZM8.62676 2.66656C9.3634 2.66656 9.96004 2.06991 9.96004 1.33328C9.96004 0.596642 9.3634 0 8.62676 0C7.89013 0 7.29348 0.596642 7.29348 1.33328C7.29348 2.06991 7.89013 2.66656 8.62676 2.66656ZM12.9599 11.3329C12.9599 12.0695 13.5566 12.6661 14.2932 12.6661C15.0298 12.6661 15.6265 12.0695 15.6265 11.3329C15.6265 10.5962 15.0298 9.99958 14.2932 9.99958C13.5566 9.99958 12.9599 10.5962 12.9599 11.3329ZM2.96033 9.33294C3.32832 9.33294 3.62697 9.03496 3.62697 8.66631C3.62697 8.29765 3.92629 7.99967 4.29361 7.99967H7.96012V8.66631C7.96012 9.03496 8.25878 9.33294 8.62676 9.33294C8.99475 9.33294 9.2934 9.03496 9.2934 8.66631V7.99967H12.9599C13.3272 7.99967 13.6266 8.29832 13.6266 8.66631C13.6266 9.03429 13.9252 9.33294 14.2932 9.33294C14.6612 9.33294 14.9598 9.03496 14.9598 8.66631C14.9598 7.56368 14.0625 6.66639 12.9599 6.66639H4.29361C3.19099 6.66639 2.29369 7.56368 2.29369 8.66631C2.29369 9.03496 2.59235 9.33294 2.96033 9.33294ZM8.62676 13.3328C7.52214 13.3328 6.56018 14.1181 6.34019 15.2C6.26686 15.5607 6.50018 15.9127 6.86084 15.986C7.22415 16.0607 7.57347 15.826 7.6468 15.466C7.7408 15.0027 8.15278 14.6667 8.62676 14.6667C9.10074 14.6667 9.51273 15.0027 9.60672 15.466C9.67072 15.782 9.94871 16 10.2594 16C10.3034 16 10.348 15.9953 10.3927 15.986C10.7533 15.9133 10.9867 15.5607 10.9133 15.2C10.6933 14.1181 9.73205 13.3328 8.62676 13.3328ZM6.86084 5.98575C7.22415 6.05841 7.57347 5.82642 7.6468 5.46577C7.7408 5.00246 8.15278 4.66647 8.62676 4.66647C9.10074 4.66647 9.51273 5.00246 9.60672 5.46577C9.67072 5.78176 9.94871 5.99975 10.2594 5.99975C10.3034 5.99975 10.348 5.99508 10.3927 5.98575C10.7533 5.91309 10.9867 5.56044 10.9133 5.19978C10.6933 4.11783 9.73205 3.33253 8.62676 3.33253C7.52148 3.33253 6.56018 4.11783 6.34019 5.19978C6.26686 5.56044 6.50018 5.91242 6.86084 5.98575ZM2.927 13.3328C1.82171 13.3328 0.859753 14.1181 0.640429 15.2C0.567098 15.5614 0.800422 15.9127 1.16107 15.9867C1.52106 16.056 1.87371 15.826 1.94704 15.466C2.04104 15.0027 2.45302 14.6667 2.927 14.6667C3.40098 14.6667 3.81296 15.0027 3.90696 15.466C3.97096 15.782 4.24895 16 4.5596 16C4.6036 16 4.64826 15.9953 4.69293 15.986C5.05358 15.9133 5.2869 15.5607 5.21357 15.2C4.99358 14.1181 4.03229 13.3328 2.927 13.3328ZM16.6124 15.1974C16.3891 14.1174 15.4131 13.3328 14.2932 13.3328C13.1732 13.3328 12.1973 14.1174 11.974 15.1974C11.8993 15.558 12.1306 15.9107 12.4913 15.986C12.8499 16.056 13.2046 15.8287 13.2792 15.4687C13.3759 15.004 13.8019 14.6667 14.2932 14.6667C14.7845 14.6667 15.2105 15.004 15.3072 15.4687C15.3725 15.7833 15.6498 16 15.9591 16C16.0038 16 16.0491 15.9953 16.0951 15.986C16.4558 15.9113 16.6878 15.558 16.6124 15.1974Z" fill="black"/>
</svg>
