<svg width="24" height="24" viewBox="0 0 24 24" fill="none" xmlns="http://www.w3.org/2000/svg">
<g clip-path="url(#clip0_1_2733)">
<path d="M1 15.6667H23M1 8.33333H23M8.33333 23V1M15.6667 23V1M3.93333 1H20.0667C20.8446 1 21.5907 1.30905 22.1408 1.85915C22.691 2.40926 23 3.15537 23 3.93333V20.0667C23 20.8446 22.691 21.5907 22.1408 22.1408C21.5907 22.691 20.8446 23 20.0667 23H3.93333C3.15537 23 2.40926 22.691 1.85915 22.1408C1.30905 21.5907 1 20.8446 1 20.0667V3.93333C1 3.54812 1.07587 3.16668 1.22329 2.8108C1.3707 2.45491 1.58677 2.13154 1.85915 1.85915C2.40926 1.30905 3.15537 1 3.93333 1Z" stroke="black" stroke-width="1.83333" stroke-miterlimit="10" stroke-linecap="round" stroke-linejoin="round"/>
</g>
<defs>
<clipPath id="clip0_1_2733">
<rect width="24" height="24" fill="white"/>
</clipPath>
</defs>
</svg>
