<svg xmlns="http://www.w3.org/2000/svg" width="20" height="20" viewBox="0 0 20 20" fill="none">
  <path fill-rule="evenodd" clip-rule="evenodd" d="M3.23077 1.53846C2.78194 1.53846 2.3515 1.71676 2.03413 2.03413C1.87698 2.19127 1.75233 2.37783 1.66728 2.58315C1.58223 2.78847 1.53846 3.00853 1.53846 3.23077V6.15385H6.15385V1.53846H3.23077ZM3.23077 0C2.37392 0 1.55216 0.340384 0.94627 0.94627C0.646266 1.24628 0.408289 1.60243 0.245928 1.99441C0.0835664 2.38638 0 2.8065 0 3.23077V16.7692C0 17.6261 0.340384 18.4478 0.94627 19.0537C1.55216 19.6596 2.37392 20 3.23077 20H16.7692C17.6261 20 18.4478 19.6596 19.0537 19.0537C19.6596 18.4478 20 17.6261 20 16.7692V3.23077C20 2.37392 19.6596 1.55216 19.0537 0.94627C18.4478 0.340384 17.6261 0 16.7692 0H3.23077ZM7.69231 1.53846V6.15385H12.3077V1.53846H7.69231ZM13.8462 1.53846V6.15385H18.4615V3.23077C18.4615 2.78194 18.2832 2.3515 17.9659 2.03413C17.6485 1.71676 17.2181 1.53846 16.7692 1.53846H13.8462ZM18.4615 7.69231H13.8462V12.3077H18.4615V7.69231ZM18.4615 13.8462H13.8462V18.4615H16.7692C17.2181 18.4615 17.6485 18.2832 17.9659 17.9659C18.2832 17.6485 18.4615 17.2181 18.4615 16.7692V13.8462ZM12.3077 18.4615V13.8462H7.69231V18.4615H12.3077ZM6.15385 18.4615V13.8462H1.53846V16.7692C1.53846 17.2181 1.71676 17.6485 2.03413 17.9659C2.3515 18.2832 2.78194 18.4615 3.23077 18.4615H6.15385ZM1.53846 12.3077H6.15385V7.69231H1.53846V12.3077ZM7.69231 7.69231V12.3077H12.3077V7.69231H7.69231Z" fill="#AE4F3E"/>
</svg>