<svg width="16" height="26" viewBox="0 0 16 26" fill="none" xmlns="http://www.w3.org/2000/svg">
<path d="M11.2582 12.5708L15.0023 16.3538C16.8353 14.5078 15.0023 12.6748 15.0023 12.6748L13.0652 10.7117C13.2992 10.2177 13.4292 9.67171 13.4292 9.0997C13.4292 7.73467 12.7272 6.53865 11.6612 5.84964L13.4292 0.142538C10.9462 -0.611475 10.1792 1.87157 10.1792 1.87157L9.12616 5.23863C7.52713 5.40763 6.22711 6.49965 5.7981 8.03368L0 9.91871C0.832015 12.3888 3.28906 11.5697 3.28906 11.5697L5.98011 10.6987C6.42212 11.6607 7.22813 12.4018 8.22915 12.7658V22.0999C8.22915 22.0999 5.6291 22.0999 5.6291 24.7C5.6291 25.35 5.6291 25.753 5.6291 26H13.4292V24.7C13.4292 24.7 13.4292 22.0999 10.8292 22.0999V12.7658C10.9852 12.7138 11.1282 12.6358 11.2582 12.5708ZM7.57913 9.0997C7.57913 8.58252 7.78458 8.08652 8.15029 7.72081C8.51599 7.35511 9.01199 7.14966 9.52917 7.14966C10.0464 7.14966 10.5424 7.35511 10.9081 7.72081C11.2738 8.08652 11.4792 8.58252 11.4792 9.0997C11.4792 9.61688 11.2738 10.1129 10.9081 10.4786C10.5424 10.8443 10.0464 11.0497 9.52917 11.0497C9.01199 11.0497 8.51599 10.8443 8.15029 10.4786C7.78458 10.1129 7.57913 9.61688 7.57913 9.0997Z" fill="#101010"/>
</svg>
