<svg width="17" height="16" viewBox="0 0 17 16" fill="none" xmlns="http://www.w3.org/2000/svg">
<path d="M10.8418 0C9.26567 0 7.75408 0.62612 6.63958 1.74062C5.52507 2.85512 4.89895 4.36671 4.89895 5.94286C4.89895 7.41486 5.43838 8.768 6.32524 9.81029L6.07838 10.0571H5.3561L0.784668 14.6286L2.1561 16L6.72753 11.4286V10.7063L6.97438 10.4594C8.01667 11.3463 9.36981 11.8857 10.8418 11.8857C12.418 11.8857 13.9295 11.2596 15.044 10.1451C16.1585 9.03059 16.7847 7.519 16.7847 5.94286C16.7847 4.36671 16.1585 2.85512 15.044 1.74062C13.9295 0.62612 12.418 0 10.8418 0ZM10.8418 1.82857C13.1275 1.82857 14.9561 3.65714 14.9561 5.94286C14.9561 8.22857 13.1275 10.0571 10.8418 10.0571C8.5561 10.0571 6.72753 8.22857 6.72753 5.94286C6.72753 3.65714 8.5561 1.82857 10.8418 1.82857Z" fill="#80838D"/>
</svg>
