<svg xmlns="http://www.w3.org/2000/svg" width="16" height="16" viewBox="0 0 16 16" fill="none">
  <path d="M10.0571 0C8.481 0 6.96941 0.62612 5.85491 1.74062C4.74041 2.85512 4.11429 4.36671 4.11429 5.94286C4.11429 7.41486 4.65372 8.768 5.54057 9.81029L5.29371 10.0571H4.57143L0 14.6286L1.37143 16L5.94286 11.4286V10.7063L6.18971 10.4594C7.232 11.3463 8.58514 11.8857 10.0571 11.8857C11.6333 11.8857 13.1449 11.2596 14.2594 10.1451C15.3739 9.03059 16 7.519 16 5.94286C16 4.36671 15.3739 2.85512 14.2594 1.74062C13.1449 0.62612 11.6333 0 10.0571 0ZM10.0571 1.82857C12.3429 1.82857 14.1714 3.65714 14.1714 5.94286C14.1714 8.22857 12.3429 10.0571 10.0571 10.0571C7.77143 10.0571 5.94286 8.22857 5.94286 5.94286C5.94286 3.65714 7.77143 1.82857 10.0571 1.82857Z" fill="#6C6C6C"/>
</svg>