<svg width="28" height="28" viewBox="0 0 28 28" fill="none" xmlns="http://www.w3.org/2000/svg">
<path d="M14.003 18.62C12.7433 18.62 11.5352 18.1333 10.6445 17.2669C9.75379 16.4005 9.25339 15.2253 9.25339 14C9.25339 12.7747 9.75379 11.5996 10.6445 10.7332C11.5352 9.8668 12.7433 9.38005 14.003 9.38005C15.2627 9.38005 16.4707 9.8668 17.3615 10.7332C18.2522 11.5996 18.7526 12.7747 18.7526 14C18.7526 15.2253 18.2522 16.4005 17.3615 17.2669C16.4707 18.1333 15.2627 18.62 14.003 18.62ZM24.0857 15.2804C24.14 14.858 24.1807 14.4356 24.1807 14C24.1807 13.5644 24.14 13.1288 24.0857 12.68L26.9491 10.5284C27.2069 10.3304 27.2748 9.97405 27.1119 9.68365L24.3978 5.11645C24.235 4.82605 23.8686 4.70725 23.5701 4.82605L20.1911 6.14605C19.4854 5.63125 18.7526 5.18245 17.8977 4.85245L17.3956 1.35445C17.3413 1.03765 17.0563 0.800049 16.7171 0.800049H11.2889C10.9497 0.800049 10.6647 1.03765 10.6104 1.35445L10.1083 4.85245C9.25339 5.18245 8.52059 5.63125 7.81494 6.14605L4.43593 4.82605C4.13739 4.70725 3.77099 4.82605 3.60814 5.11645L0.894084 9.68365C0.71767 9.97405 0.799092 10.3304 1.05693 10.5284L3.92026 12.68C3.86598 13.1288 3.82527 13.5644 3.82527 14C3.82527 14.4356 3.86598 14.858 3.92026 15.2804L1.05693 17.4716C0.799092 17.6696 0.71767 18.026 0.894084 18.3165L3.60814 22.8836C3.77099 23.174 4.13739 23.2797 4.43593 23.1741L7.81494 21.8408C8.52059 22.3688 9.25339 22.8176 10.1083 23.1476L10.6104 26.6456C10.6647 26.9624 10.9497 27.2 11.2889 27.2H16.7171C17.0563 27.2 17.3413 26.9624 17.3956 26.6456L17.8977 23.1476C18.7526 22.8044 19.4854 22.3688 20.1911 21.8408L23.5701 23.1741C23.8686 23.2797 24.235 23.174 24.3978 22.8836L27.1119 18.3165C27.2748 18.026 27.2069 17.6696 26.9491 17.4716L24.0857 15.2804Z" fill="#101010"/>
</svg>
