<svg width="32" height="32" viewBox="0 0 32 32" fill="none" xmlns="http://www.w3.org/2000/svg">
<path d="M20.1658 21.8344C20.1658 24.1338 18.2997 26 16.0003 26H10.1685C7.8691 26 6.00293 24.1338 6.00293 21.8344V16.0026C6.00293 13.7033 7.8691 11.8371 10.1685 11.8371H11.0016C11.4598 11.8371 11.8347 12.212 11.8347 12.6702C11.8347 13.1284 11.4598 13.5033 11.0016 13.5033H10.1685C8.79386 13.5033 7.66916 14.628 7.66916 16.0026V21.8344C7.66916 23.2091 8.79386 24.3338 10.1685 24.3338H16.0003C17.3749 24.3338 18.4996 23.2091 18.4996 21.8344C18.4996 21.3762 18.8745 21.0013 19.3327 21.0013C19.7909 21.0013 20.1658 21.3762 20.1658 21.8344ZM25.2728 10.9123L20.7657 6.25523C20.4491 5.92198 19.9159 5.91365 19.591 6.23857C19.2661 6.56348 19.2494 7.08834 19.5743 7.41326L23.8565 11.8288H16.8334C14.534 11.8288 12.6678 13.6949 12.6678 15.9943V20.1599C12.6678 20.6181 13.0427 20.993 13.5009 20.993C13.9592 20.993 14.3341 20.6181 14.3341 20.1599V15.9943C14.3341 14.6197 15.4588 13.495 16.8334 13.495H23.8482L19.566 17.9105C19.2494 18.2437 19.2494 18.7686 19.5827 19.0852C19.741 19.2435 19.9576 19.3184 20.1658 19.3184C20.3741 19.3184 20.5991 19.2351 20.7657 19.0685L25.2645 14.4281C26.2392 13.4533 26.2392 11.8704 25.2728 10.904V10.9123Z" fill="black"/>
</svg>
