<svg width="12" height="12" viewBox="0 0 12 12" fill="none" xmlns="http://www.w3.org/2000/svg">
<path d="M11.3508 0.000253349C11.3275 0.00101956 11.3042 0.00307755 11.2811 0.00641781H7.25976C7.17611 0.00523484 7.09305 0.0206884 7.01542 0.0518804C6.9378 0.0830724 6.86714 0.129381 6.80757 0.188114C6.74799 0.246848 6.70069 0.316835 6.6684 0.394009C6.63611 0.471183 6.61948 0.554004 6.61948 0.637659C6.61948 0.721314 6.63611 0.804135 6.6684 0.881309C6.70069 0.958483 6.74799 1.02847 6.80757 1.0872C6.86714 1.14594 6.9378 1.19225 7.01542 1.22344C7.09305 1.25463 7.17611 1.27008 7.25976 1.2689H9.83914L5.55085 5.5569C5.49027 5.61507 5.4419 5.68474 5.40857 5.76183C5.37525 5.83892 5.35765 5.92189 5.35679 6.00587C5.35594 6.08985 5.37185 6.17316 5.4036 6.25091C5.43534 6.32867 5.48229 6.39931 5.54168 6.45869C5.60107 6.51808 5.67171 6.56502 5.74947 6.59677C5.82723 6.62851 5.91054 6.64442 5.99453 6.64357C6.07852 6.64271 6.16149 6.62511 6.23859 6.59179C6.31568 6.55847 6.38536 6.5101 6.44353 6.44952L10.7318 2.16151V4.74073C10.7306 4.82437 10.7461 4.90742 10.7773 4.98504C10.8085 5.06267 10.8548 5.13332 10.9135 5.19289C10.9723 5.25246 11.0423 5.29976 11.1194 5.33205C11.1966 5.36433 11.2794 5.38096 11.3631 5.38096C11.4468 5.38096 11.5296 5.36433 11.6068 5.33205C11.6839 5.29976 11.7539 5.25246 11.8127 5.19289C11.8714 5.13332 11.9177 5.06267 11.9489 4.98504C11.9801 4.90742 11.9956 4.82437 11.9944 4.74073V0.715331C12.0066 0.624636 11.9989 0.532378 11.9719 0.444947C11.9449 0.357516 11.8992 0.277002 11.8379 0.208984C11.7767 0.140966 11.7014 0.0870693 11.6173 0.0510277C11.5332 0.0149861 11.4422 -0.00233878 11.3508 0.000253349ZM2.36731 0.95328C1.06772 0.95328 0 2.02093 0 3.32043V9.63285C0 10.9324 1.06772 12 2.36731 12H8.68015C9.97974 12 11.0475 10.9324 11.0475 9.63285V6.63445C11.0486 6.5508 11.0332 6.46776 11.002 6.39013C10.9708 6.31251 10.9245 6.24186 10.8658 6.18229C10.807 6.12272 10.737 6.07542 10.6598 6.04313C10.5827 6.01085 10.4998 5.99422 10.4162 5.99422C10.3325 5.99422 10.2497 6.01085 10.1725 6.04313C10.0953 6.07542 10.0253 6.12272 9.9666 6.18229C9.90786 6.24186 9.86155 6.31251 9.83036 6.39013C9.79916 6.46776 9.78371 6.5508 9.78489 6.63445V9.63285C9.78489 10.2473 9.2946 10.7375 8.68015 10.7375H2.36731C1.75286 10.7375 1.26257 10.2473 1.26257 9.63285V3.32043C1.26257 2.70602 1.75286 2.21576 2.36731 2.21576H5.36591C5.44956 2.21694 5.53261 2.20149 5.61024 2.1703C5.68787 2.13911 5.75852 2.0928 5.8181 2.03407C5.87767 1.97533 5.92498 1.90534 5.95727 1.82817C5.98955 1.751 6.00618 1.66818 6.00618 1.58452C6.00618 1.50087 5.98955 1.41804 5.95727 1.34087C5.92498 1.2637 5.87767 1.19371 5.8181 1.13498C5.75852 1.07624 5.68787 1.02993 5.61024 0.998742C5.53261 0.96755 5.44956 0.952097 5.36591 0.95328H2.36731Z" fill="#80838D"/>
</svg>
