<svg width="11" height="10" viewBox="0 0 11 10" fill="none" xmlns="http://www.w3.org/2000/svg">
<path d="M10.4923 4.00429C10.5423 3.74226 10.3424 3.42783 10.0926 3.42783L7.2448 3.00858L5.9458 0.283491C5.89584 0.178679 5.84588 0.126274 5.74595 0.0738679C5.49615 -0.0833491 5.19638 0.0214622 5.04649 0.283491L3.79746 3.00858L0.949653 3.42783C0.799769 3.42783 0.699846 3.48024 0.649884 3.58505C0.450039 3.79467 0.450039 4.1091 0.649884 4.31873L2.6983 6.41495L2.19869 9.40208C2.19869 9.50689 2.19869 9.6117 2.24865 9.71651C2.39854 9.97854 2.6983 10.0833 2.94811 9.92613L5.49615 8.51118L8.04418 9.92613C8.09414 9.97854 8.19407 9.97854 8.29399 9.97854H8.39391C8.64372 9.92613 8.84356 9.6641 8.7936 9.34967L8.29399 6.36255L10.3424 4.26632C10.4423 4.21392 10.4923 4.1091 10.4923 4.00429Z" fill="#8B8D98"/>
</svg>
