<svg width="17" height="16" viewBox="0 0 17 16" fill="none" xmlns="http://www.w3.org/2000/svg">
<path d="M8.62646 0C7.04422 0 5.4975 0.469192 4.18191 1.34824C2.86631 2.22729 1.84093 3.47672 1.23543 4.93853C0.629931 6.40034 0.471504 8.00887 0.780186 9.56072C1.08887 11.1126 1.85079 12.538 2.96961 13.6569C4.08843 14.7757 5.5139 15.5376 7.06574 15.8463C8.61759 16.155 10.2261 15.9965 11.6879 15.391C13.1497 14.7855 14.3992 13.7602 15.2782 12.4446C16.1573 11.129 16.6265 9.58225 16.6265 8C16.6242 5.87897 15.7806 3.84547 14.2808 2.34568C12.781 0.845885 10.7475 0.00229405 8.62646 0ZM8.62646 14.6667C7.30792 14.6667 6.01899 14.2757 4.92267 13.5431C3.82634 12.8106 2.97185 11.7694 2.46727 10.5512C1.96269 9.33305 1.83066 7.9926 2.0879 6.6994C2.34513 5.40619 2.98007 4.2183 3.91242 3.28595C4.84477 2.3536 6.03266 1.71867 7.32586 1.46143C8.61907 1.2042 9.95951 1.33622 11.1777 1.8408C12.3959 2.34539 13.4371 3.19987 14.1696 4.2962C14.9021 5.39252 15.2931 6.68146 15.2931 8C15.2912 9.76751 14.5882 11.4621 13.3384 12.7119C12.0885 13.9617 10.394 14.6647 8.62646 14.6667Z" fill="black"/>
<path d="M8.62646 3.33333C8.44965 3.33333 8.28008 3.40357 8.15506 3.52859C8.03003 3.65362 7.9598 3.82319 7.9598 4V9.33333C7.9598 9.51014 8.03003 9.67971 8.15506 9.80473C8.28008 9.92976 8.44965 10 8.62646 10C8.80327 10 8.97284 9.92976 9.09787 9.80473C9.22289 9.67971 9.29313 9.51014 9.29313 9.33333V4C9.29313 3.82319 9.22289 3.65362 9.09787 3.52859C8.97284 3.40357 8.80327 3.33333 8.62646 3.33333Z" fill="black"/>
<path d="M9.29313 12C9.29313 11.6318 8.99465 11.3333 8.62646 11.3333C8.25827 11.3333 7.9598 11.6318 7.9598 12C7.9598 12.3682 8.25827 12.6667 8.62646 12.6667C8.99465 12.6667 9.29313 12.3682 9.29313 12Z" fill="black"/>
</svg>
