<svg width="21" height="20" viewBox="0 0 21 20" fill="none" xmlns="http://www.w3.org/2000/svg">
<path d="M10.7847 0C8.80686 0 6.87346 0.58649 5.22897 1.6853C3.58448 2.78412 2.30275 4.3459 1.54588 6.17316C0.789001 8.00043 0.590967 10.0111 0.97682 11.9509C1.36267 13.8907 2.31508 15.6725 3.7136 17.0711C5.11213 18.4696 6.89396 19.422 8.83377 19.8078C10.7736 20.1937 12.7842 19.9957 14.6115 19.2388C16.4388 18.4819 18.0005 17.2002 19.0994 15.5557C20.1982 13.9112 20.7847 11.9778 20.7847 10C20.7818 7.34871 19.7273 4.80684 17.8526 2.9321C15.9778 1.05736 13.436 0.00286757 10.7847 0ZM10.7847 18.3333C9.13649 18.3333 7.52533 17.8446 6.15492 16.9289C4.78451 16.0132 3.71641 14.7117 3.08568 13.189C2.45495 11.6663 2.28992 9.99075 2.61146 8.37425C2.933 6.75774 3.72668 5.27288 4.89211 4.10744C6.05755 2.94201 7.54241 2.14833 9.15892 1.82679C10.7754 1.50525 12.451 1.67027 13.9737 2.301C15.4964 2.93173 16.7979 3.99984 17.7136 5.37025C18.6293 6.74066 19.118 8.35182 19.118 10C19.1156 12.2094 18.2368 14.3276 16.6745 15.8899C15.1123 17.4521 12.9941 18.3309 10.7847 18.3333Z" fill="#80838D"/>
<path d="M11.3822 4.21916C10.9016 4.13161 10.4077 4.15074 9.93533 4.2752C9.46298 4.39966 9.02376 4.62642 8.64874 4.93942C8.27373 5.25242 7.97209 5.64402 7.76517 6.0865C7.55826 6.52898 7.45111 7.01153 7.45133 7.5C7.45133 7.72101 7.53913 7.93297 7.69541 8.08925C7.85169 8.24553 8.06365 8.33333 8.28467 8.33333C8.50568 8.33333 8.71764 8.24553 8.87392 8.08925C9.0302 7.93297 9.118 7.72101 9.118 7.5C9.11779 7.25481 9.17168 7.0126 9.27583 6.79063C9.37997 6.56866 9.53181 6.3724 9.72051 6.21586C9.90922 6.05931 10.1301 5.94632 10.3675 5.88495C10.6049 5.82359 10.8529 5.81535 11.0938 5.86083C11.423 5.92473 11.7257 6.08532 11.9632 6.32207C12.2007 6.55882 12.3622 6.861 12.4272 7.19C12.4927 7.53533 12.4475 7.89256 12.2978 8.21061C12.1481 8.52866 11.9017 8.79125 11.5938 8.96083C11.084 9.25622 10.6627 9.68293 10.3738 10.1965C10.0849 10.7101 9.93901 11.2917 9.95133 11.8808V12.5C9.95133 12.721 10.0391 12.933 10.1954 13.0893C10.3517 13.2455 10.5637 13.3333 10.7847 13.3333C11.0057 13.3333 11.2176 13.2455 11.3739 13.0893C11.5302 12.933 11.618 12.721 11.618 12.5V11.8808C11.6075 11.5908 11.6737 11.3032 11.8097 11.0469C11.9458 10.7906 12.147 10.5747 12.393 10.4208C12.9968 10.0892 13.483 9.57871 13.7847 8.9595C14.0865 8.34029 14.189 7.6428 14.0782 6.96293C13.9674 6.28307 13.6487 5.65424 13.1659 5.16291C12.6831 4.67158 12.06 4.34188 11.3822 4.21916Z" fill="#80838D"/>
<path d="M11.618 15C11.618 14.5398 11.2449 14.1667 10.7847 14.1667C10.3244 14.1667 9.95133 14.5398 9.95133 15C9.95133 15.4602 10.3244 15.8333 10.7847 15.8333C11.2449 15.8333 11.618 15.4602 11.618 15Z" fill="#80838D"/>
</svg>
