<svg width="27" height="20" viewBox="0 0 27 20" fill="none" xmlns="http://www.w3.org/2000/svg">
<path d="M15.5556 10C15.5556 11.1322 15.2133 12.1822 14.6311 13.06L11.4367 9.86556C11.2278 9.65667 11.1111 9.37444 11.1111 9.08V4.55667C13.6467 5.07111 15.5556 7.31222 15.5556 10ZM8.88889 9.54V4.55667C6.05556 5.13222 4.00444 7.86333 4.52556 10.9644C4.88667 13.1133 6.54778 14.9011 8.66889 15.4C10.3022 15.7833 11.8467 15.4367 13.06 14.6322L9.53889 11.1111C9.12222 10.6944 8.88889 10.1289 8.88889 9.54ZM21.1111 4.44444H18.8889C18.2744 4.44444 17.7778 4.94222 17.7778 5.55556C17.7778 6.16889 18.2744 6.66667 18.8889 6.66667H21.1111C21.7256 6.66667 22.2222 6.16889 22.2222 5.55556C22.2222 4.94222 21.7256 4.44444 21.1111 4.44444ZM21.1111 8.88889H18.8889C18.2744 8.88889 17.7778 9.38667 17.7778 10C17.7778 10.6133 18.2744 11.1111 18.8889 11.1111H21.1111C21.7256 11.1111 22.2222 10.6133 22.2222 10C22.2222 9.38667 21.7256 8.88889 21.1111 8.88889ZM21.1111 13.3333H18.8889C18.2744 13.3333 17.7778 13.8311 17.7778 14.4444C17.7778 15.0578 18.2744 15.5556 18.8889 15.5556H21.1111C21.7256 15.5556 22.2222 15.0578 22.2222 14.4444C22.2222 13.8311 21.7256 13.3333 21.1111 13.3333ZM26.6667 5.55556V14.4444C26.6667 17.5078 24.1744 20 21.1111 20H5.55556C2.49222 20 0 17.5078 0 14.4444V5.55556C0 2.49222 2.49222 0 5.55556 0H21.1111C24.1744 0 26.6667 2.49222 26.6667 5.55556ZM24.4444 5.55556C24.4444 3.71778 22.9489 2.22222 21.1111 2.22222H5.55556C3.71778 2.22222 2.22222 3.71778 2.22222 5.55556V14.4444C2.22222 16.2822 3.71778 17.7778 5.55556 17.7778H21.1111C22.9489 17.7778 24.4444 16.2822 24.4444 14.4444V5.55556Z" fill="#60646C"/>
</svg>
