<svg width="22" height="22" viewBox="0 0 22 22" fill="none" xmlns="http://www.w3.org/2000/svg">
<path d="M19.5852 16.1674C18.8969 15.4786 18.0927 14.9163 17.2093 14.5065C18.455 13.4972 19.2498 11.9573 19.2498 10.2303C19.2498 7.18343 16.7088 4.68376 13.6619 4.73051C10.6618 4.77726 8.24458 7.22193 8.24458 10.2303C8.24458 11.9573 9.04206 13.4972 10.285 14.5065C9.4015 14.916 8.59719 15.4783 7.90909 16.1674C6.40763 17.6716 5.55516 19.6571 5.50016 21.7745C5.49943 21.8039 5.50457 21.8331 5.5153 21.8604C5.52603 21.8877 5.54211 21.9126 5.56262 21.9336C5.58312 21.9546 5.60762 21.9713 5.63468 21.9827C5.66173 21.9941 5.69079 22 5.72015 22H7.26011C7.37835 22 7.47735 21.9065 7.4801 21.7883C7.53235 20.1933 8.17858 18.7001 9.3143 17.5671C9.89546 16.9829 10.5867 16.5197 11.3481 16.2044C12.1095 15.8891 12.9258 15.7279 13.7499 15.7302C15.4246 15.7302 17.0003 16.3819 18.1855 17.5671C19.3185 18.7001 19.9647 20.1933 20.0197 21.7883C20.0225 21.9065 20.1215 22 20.2397 22H21.7797C21.809 22 21.8381 21.9941 21.8652 21.9827C21.8922 21.9713 21.9167 21.9546 21.9372 21.9336C21.9577 21.9126 21.9738 21.8877 21.9845 21.8604C21.9953 21.8331 22.0004 21.8039 21.9997 21.7745C21.9447 19.6571 21.0922 17.6716 19.5852 16.1674ZM13.7499 13.7502C12.8094 13.7502 11.924 13.3845 11.2612 12.719C10.9286 12.389 10.6659 11.9955 10.4888 11.5617C10.3116 11.128 10.2236 10.6631 10.23 10.1946C10.2383 9.29262 10.5985 8.4209 11.2282 7.77467C11.8882 7.09819 12.7709 6.72145 13.7142 6.71045C14.6464 6.7022 15.5511 7.06519 16.2166 7.71692C16.8986 8.38515 17.2726 9.27887 17.2726 10.2303C17.2726 11.1708 16.9068 12.0535 16.2413 12.719C15.9149 13.0471 15.5266 13.3071 15.0989 13.4841C14.6713 13.6611 14.2127 13.7516 13.7499 13.7502ZM6.86137 10.9563C6.83662 10.7171 6.82287 10.4751 6.82287 10.2303C6.82287 9.79311 6.86412 9.36687 6.94112 8.95163C6.96037 8.85264 6.90812 8.75089 6.81737 8.70964C6.44338 8.5419 6.09964 8.3109 5.80265 8.01941C5.45269 7.68009 5.17731 7.27155 4.99408 6.81985C4.81084 6.36815 4.72377 5.88322 4.73843 5.39599C4.76318 4.51326 5.11792 3.67454 5.73665 3.04206C6.41588 2.34633 7.32886 1.96684 8.29958 1.97784C9.1768 1.98609 10.0238 2.32433 10.6645 2.92381C10.8818 3.1273 11.0687 3.3528 11.2255 3.59479C11.2805 3.68004 11.3877 3.71579 11.4812 3.68279C11.9652 3.51504 12.4767 3.3968 13.0019 3.3418C13.1559 3.3253 13.2439 3.1603 13.1752 3.02281C12.2815 1.25461 10.4555 0.0336443 8.34358 0.000645234C5.29392 -0.0461034 2.75299 2.45357 2.75299 5.49773C2.75299 7.22468 3.54772 8.76464 4.79343 9.77386C3.91896 10.1781 3.11323 10.7363 2.41475 11.4348C0.907794 12.939 0.0553189 14.9245 0.000320535 17.0446C-0.000413433 17.074 0.00473449 17.1032 0.0154611 17.1305C0.0261877 17.1579 0.042276 17.1828 0.0627778 17.2038C0.0832796 17.2248 0.10778 17.2415 0.134836 17.2529C0.161892 17.2643 0.190955 17.2701 0.220314 17.2701H1.76302C1.88127 17.2701 1.98026 17.1766 1.98301 17.0584C2.03526 15.4634 2.68149 13.9702 3.81721 12.8373C4.62568 12.0288 5.61566 11.4678 6.69637 11.1956C6.80362 11.1681 6.87512 11.0663 6.86137 10.9563Z" fill="black"/>
</svg>
