<svg width="33" height="32" viewBox="0 0 33 32" fill="none" xmlns="http://www.w3.org/2000/svg">
<path d="M19.7357 6.94815L25.3265 11.9085C25.5534 12.111 25.6807 12.3849 25.6807 12.6704C25.6807 12.9559 25.5534 13.2298 25.3265 13.4323C25.2133 13.5336 25.0786 13.614 24.9302 13.6688C24.7817 13.7237 24.6225 13.7519 24.4617 13.7519C24.3009 13.7519 24.1417 13.7237 23.9933 13.6688C23.8449 13.614 23.7101 13.5336 23.5969 13.4323L18.0183 8.46111C17.905 8.35982 17.7703 8.27943 17.6219 8.22456C17.4735 8.1697 17.3143 8.14145 17.1535 8.14145C16.9927 8.14145 16.8335 8.1697 16.685 8.22456C16.5366 8.27943 16.4019 8.35982 16.2886 8.46111L10.71 13.4323C10.4823 13.6358 10.1727 13.7507 9.8495 13.7517C9.52628 13.7527 9.21584 13.6397 8.98647 13.4377C8.75711 13.2356 8.62761 12.961 8.62647 12.6742C8.62533 12.3874 8.75264 12.112 8.98038 11.9085L14.5712 6.94815C15.2564 6.34102 16.1851 6 17.1535 6C18.1218 6 19.0506 6.34102 19.7357 6.94815Z" fill="black"/>
<path d="M19.7357 25.0518L25.3265 20.0915C25.5534 19.889 25.6807 19.6151 25.6807 19.3296C25.6807 19.0441 25.5534 18.7702 25.3265 18.5677C25.2133 18.4664 25.0786 18.386 24.9302 18.3312C24.7817 18.2763 24.6225 18.2481 24.4617 18.2481C24.3009 18.2481 24.1417 18.2763 23.9933 18.3312C23.8449 18.386 23.7101 18.4664 23.5969 18.5677L18.0183 23.5389C17.905 23.6402 17.7703 23.7206 17.6219 23.7754C17.4735 23.8303 17.3143 23.8586 17.1535 23.8586C16.9927 23.8586 16.8335 23.8303 16.685 23.7754C16.5366 23.7206 16.4019 23.6402 16.2886 23.5389L10.71 18.5677C10.4823 18.3642 10.1727 18.2493 9.8495 18.2483C9.52628 18.2473 9.21584 18.3603 8.98647 18.5623C8.75711 18.7644 8.62761 19.039 8.62647 19.3258C8.62533 19.6126 8.75264 19.888 8.98038 20.0915L14.5712 25.0518C15.2564 25.659 16.1851 26 17.1535 26C18.1218 26 19.0506 25.659 19.7357 25.0518Z" fill="black"/>
</svg>
