<svg width="14" height="20" viewBox="0 0 14 20" fill="none" xmlns="http://www.w3.org/2000/svg">
<path d="M6.81798 0.677368L3.42791 4.06744H5.97046V11.6951H7.6655V4.06744H10.208L6.81798 0.677368ZM11.9031 19.3227H1.73288C0.792132 19.3227 0.0378418 18.56 0.0378418 17.6277V7.4575C0.0378418 7.00795 0.216425 6.57681 0.534306 6.25893C0.852186 5.94105 1.28332 5.76247 1.73288 5.76247H4.27543V7.4575H1.73288V17.6277H11.9031V7.4575H9.36053V5.76247H11.9031C12.3526 5.76247 12.7838 5.94105 13.1017 6.25893C13.4195 6.57681 13.5981 7.00795 13.5981 7.4575V17.6277C13.5981 18.0773 13.4195 18.5084 13.1017 18.8263C12.7838 19.1442 12.3526 19.3227 11.9031 19.3227Z" fill="#101010"/>
</svg>
