<svg width="11" height="10" viewBox="0 0 11 10" fill="none" xmlns="http://www.w3.org/2000/svg">
<path d="M5.40002 0C4.74341 0 4.09324 0.129329 3.48661 0.380602C2.87998 0.631876 2.32878 1.00017 1.86449 1.46447C0.926809 2.40215 0.400024 3.67392 0.400024 5C0.400024 6.32608 0.926809 7.59785 1.86449 8.53553C2.32878 8.99983 2.87998 9.36812 3.48661 9.6194C4.09324 9.87067 4.74341 10 5.40002 10C6.72611 10 7.99788 9.47322 8.93556 8.53553C9.87324 7.59785 10.4 6.32608 10.4 5C10.4 4.34339 10.2707 3.69321 10.0194 3.08658C9.76815 2.47995 9.39985 1.92876 8.93556 1.46447C8.47127 1.00017 7.92007 0.631876 7.31344 0.380602C6.70681 0.129329 6.05663 0 5.40002 0ZM2.93502 8.14C3.15002 7.69 4.46002 7.25 5.40002 7.25C6.34002 7.25 7.65002 7.69 7.86502 8.14C7.18502 8.68 6.33002 9 5.40002 9C4.47002 9 3.61502 8.68 2.93502 8.14ZM8.58002 7.415C7.86503 6.545 6.13002 6.25 5.40002 6.25C4.67002 6.25 2.93502 6.545 2.22002 7.415C1.71002 6.75 1.40002 5.91 1.40002 5C1.40002 2.795 3.19502 1 5.40002 1C7.60502 1 9.40002 2.795 9.40002 5C9.40002 5.91 9.09002 6.75 8.58002 7.415ZM5.40002 2C4.43002 2 3.65002 2.78 3.65002 3.75C3.65002 4.72 4.43002 5.5 5.40002 5.5C6.37002 5.5 7.15002 4.72 7.15002 3.75C7.15002 2.78 6.37002 2 5.40002 2ZM5.40002 4.5C5.20111 4.5 5.01035 4.42098 4.86969 4.28033C4.72904 4.13968 4.65002 3.94891 4.65002 3.75C4.65002 3.55109 4.72904 3.36032 4.86969 3.21967C5.01035 3.07902 5.20111 3 5.40002 3C5.59894 3 5.7897 3.07902 5.93035 3.21967C6.07101 3.36032 6.15002 3.55109 6.15002 3.75C6.15002 3.94891 6.07101 4.13968 5.93035 4.28033C5.7897 4.42098 5.59894 4.5 5.40002 4.5Z" fill="#60646C"/>
</svg>
