<svg xmlns="http://www.w3.org/2000/svg" width="20" height="20" viewBox="0 0 20 20" fill="none">
  <path d="M19.2675 0.7325C18.2925 -0.2425 16.7075 -0.2425 15.7325 0.7325L10.1433 6.32167C9.51333 6.95083 9.16667 7.78833 9.16667 8.67833V10C9.16667 10.46 9.53917 10.8333 10 10.8333H11.3217C12.2117 10.8333 13.0492 10.4858 13.6783 9.85667L19.2675 4.2675C20.2375 3.33667 20.2375 1.66333 19.2675 0.7325ZM18.0892 3.08917L12.5 8.67833C12.185 8.99333 11.7667 9.16667 11.3217 9.16667H10.8333V8.67833C10.8333 8.24 11.0117 7.81 11.3217 7.5L16.9108 1.91083C17.2367 1.58583 17.7633 1.58583 18.0892 1.91083C18.4125 2.22083 18.4125 2.77917 18.0892 3.08917ZM10 15C9.53917 15 9.16667 14.6275 9.16667 14.1667C9.16667 13.7058 9.53917 13.3333 10 13.3333H12.5C12.9608 13.3333 13.3333 13.7058 13.3333 14.1667C13.3333 14.6275 12.9608 15 12.5 15H10ZM16.6667 11.6667V15.8333C16.6667 18.1308 14.7975 20 12.5 20H4.16667C1.86917 20 0 18.1308 0 15.8333V4.16667C0 1.86917 1.86917 0 4.16667 0H11.6667C12.1275 0 12.5 0.373333 12.5 0.833333C12.5 1.29333 12.1275 1.66667 11.6667 1.66667H4.16667C2.78833 1.66667 1.66667 2.78833 1.66667 4.16667V15.8333C1.66667 17.2117 2.78833 18.3333 4.16667 18.3333H12.5C13.8783 18.3333 15 17.2117 15 15.8333V11.6667C15 11.2058 15.3725 10.8333 15.8333 10.8333C16.2942 10.8333 16.6667 11.2058 16.6667 11.6667ZM7.63917 9.7225L6.23333 11.1283C5.87417 11.4875 5.40417 11.6683 4.9325 11.6683C4.48833 11.6683 4.04417 11.5075 3.69 11.1833L3.1325 10.7008C2.785 10.3992 2.7475 9.8725 3.04833 9.525C3.35083 9.17583 3.87667 9.14083 4.22417 9.44083L4.79833 9.93917C4.88417 10.0167 4.98833 10.0158 5.05417 9.95L6.46 8.54417C6.78583 8.21833 7.3125 8.21833 7.63833 8.54417C7.96417 8.87 7.965 9.39667 7.63917 9.7225ZM7.63917 5.58917L6.23333 6.995C5.87417 7.35417 5.40417 7.535 4.9325 7.535C4.48833 7.535 4.04417 7.37417 3.69 7.05L3.1325 6.5675C2.785 6.26583 2.7475 5.73917 3.04833 5.39167C3.35083 5.04333 3.87667 5.0075 4.22417 5.3075L4.79833 5.80583C4.88417 5.88417 4.98833 5.8825 5.05417 5.81667L6.46 4.41083C6.78583 4.085 7.3125 4.085 7.63833 4.41083C7.96417 4.73667 7.965 5.26333 7.63917 5.58917ZM7.63917 12.7108C7.965 13.0367 7.965 13.5633 7.63917 13.8892L6.23333 15.295C5.87417 15.6542 5.40417 15.835 4.9325 15.835C4.48833 15.835 4.04417 15.6742 3.69 15.35L3.1325 14.8675C2.785 14.5658 2.7475 14.04 3.04833 13.6917C3.35083 13.3442 3.87667 13.3067 4.22417 13.6075L4.79833 14.1058C4.88417 14.1833 4.98833 14.1825 5.05417 14.1167L6.46 12.7108C6.78583 12.385 7.31333 12.385 7.63917 12.7108Z" fill="#6C6C6C"/>
</svg>